<svg xmlns="http://www.w3.org/2000/svg" width="48" height="48" data-name="Layer 1" viewBox="0 0 48 48"><path d="M35.73,24.59a2.87,2.87,0,0,0-1.12.24v1c0,.62.24.82.94.82s.93-.25.93-.82v-.55C36.48,24.76,36.22,24.59,35.73,24.59Z"/><path d="M9.11,9.11V38.89H38.89V9.11ZM25.94,21.52H22.79v1.8H25.7v1.24H22.79v1.92h3.15v1.24H21.39V20.28h4.55Zm3.47,6.31a6.12,6.12,0,0,1-2.32-.45l.25-1.1a7,7,0,0,0,2.1.34c1,0,1.18-.21,1.18-.92s0-.9-1.36-1.19c-1.8-.4-2.05-.74-2.05-2.32,0-1.35.62-2,2.5-2a10,10,0,0,1,2.17.25l-.16,1.18a10,10,0,0,0-2-.22c-.95,0-1.12.2-1.12.85,0,.84,0,.87,1.31,1.18,2,.48,2.09.8,2.09,2.29S31.61,27.83,29.41,27.83Zm8.43-2c0,1.16-.54,2-2.29,2-1.92,0-2.3-.85-2.3-2.13V23c0-2,1-2.59,3.08-2.59a6.37,6.37,0,0,1,1.29.14l-.09,1.14a6.14,6.14,0,0,0-1.05-.1c-1.32,0-1.87.22-1.87,1.36v.69a4.31,4.31,0,0,1,1.33-.2c1.35,0,1.9.56,1.9,1.84Z"/></svg>