<svg xmlns="http://www.w3.org/2000/svg" enable-background="new 0 0 24 24" viewBox="0 0 24 24"><path d="M1.116,17.58c-0.406,2.432,0.259,4.384,1.864,5.489C3.804,23.651,4.83,24,5.939,24c0.003,0,0.006,0,0.009,0c1.842,0,3.712-0.917,5.52-1.807c1.289-0.632,2.62-1.292,3.93-1.612c0.484-0.118,0.988-0.187,1.52-0.264c1.079-0.153,2.193-0.312,3.194-0.89c1.138-0.655,1.951-1.76,2.196-3.063l0.004-0.028c0.175-0.994,0-1.994-0.447-2.87c0.3-0.48,0.469-1.042,0.469-1.647l0.002,0.001c-0.003-1.439-0.988-2.649-2.325-3.005L19.988,8.81L23,0H8.073l3.02,8.838c-1.317,0.39-2.26,1.579-2.262,2.988c0,1.043,0.524,1.967,1.324,2.536c-0.334,0.464-0.694,0.871-1.089,1.24l-0.004,0.004c-0.723,0.684-1.576,1.24-2.516,1.627l-0.054,0.02c-0.841-0.563-1.205-1.556-0.876-2.446c1.288-0.406,2.205-1.582,2.205-2.97c0-1.713-1.396-3.103-3.122-3.11H4.696C2.964,8.729,1.56,10.122,1.558,11.84c0,0.848,0.35,1.626,0.91,2.182c-0.048,0.097-0.098,0.195-0.147,0.299C1.852,15.28,1.32,16.364,1.116,17.58z M20.97,11.819l-0.001,0.001c0,0.965-0.791,1.75-1.764,1.75c-0.974-0.003-1.762-0.787-1.762-1.753c0-0.555,0.26-1.049,0.665-1.37l0.004-0.003l0.007-0.007c0.056-0.042,0.119-0.084,0.182-0.125c0,0,0.008,0,0.008-0.007c0.028-0.014,0.056-0.035,0.084-0.05c0.007,0,0.014-0.006,0.021-0.006c0.028-0.014,0.063-0.028,0.098-0.042c0.034-0.014,0.071-0.027,0.099-0.041c0.007,0,0.013-0.007,0.02-0.007c0.028-0.007,0.056-0.021,0.085-0.028c0.007,0,0.02-0.007,0.028-0.007c0.034-0.007,0.063-0.014,0.098-0.02h0.007l0.105-0.022c0.007,0,0.02,0,0.028-0.007c0.028,0,0.056-0.007,0.084-0.007H19.1c0.035,0,0.071-0.007,0.112-0.007h0.091c0.028,0,0.05,0,0.078,0.007h0.014c0.056,0.007,0.112,0.014,0.168,0.028C20.371,10.272,20.968,10.976,20.97,11.819z M10.028,1.39h11.019l-2.529,7.4c-0.105,0.02-0.21,0.055-0.315,0.09l-2.661-5.385l-2.67,5.35c-0.105-0.034-0.218-0.055-0.33-0.076L10.028,1.39z M14.092,9.549L14.09,9.547l1.45-2.904l1.464,2.967c-0.433,0.43-0.749,0.98-0.875,1.605h-1.093C14.899,10.55,14.563,9.979,14.092,9.549z M10.196,11.813c0-0.001,0-0.003,0-0.005c0-0.812,0.56-1.495,1.318-1.687l0.012-0.003v-0.001c0.034-0.007,0.063-0.014,0.098-0.02h0.02c0.029-0.008,0.056-0.008,0.085-0.015h0.028c0.028,0,0.049-0.007,0.077-0.007h0.273c0.028,0,0.049,0.007,0.071,0.007c0.014,0,0.02,0,0.035,0.007c0.027,0.007,0.048,0.007,0.077,0.014c0.007,0,0.014,0,0.028,0.007l0.098,0.02h0.007c0.028,0.008,0.056,0.015,0.084,0.029c0.007,0,0.014,0.007,0.028,0.007c0.021,0.007,0.049,0.014,0.071,0.027c0.007,0,0.014,0.007,0.02,0.007c0.028,0.014,0.056,0.021,0.085,0.035h0.007c0.034,0.013,0.064,0.03,0.092,0.05l-0.001-0.001h0.007c0.028,0.014,0.056,0.034,0.085,0.048c0.007,0,0.007,0.007,0.013,0.007c0.028,0.014,0.05,0.035,0.078,0.049l0.007,0.007c0.084,0.062,0.161,0.132,0.238,0.201l0.007,0.007c0.299,0.313,0.484,0.736,0.484,1.203c0,0.002,0,0.004,0,0.007c-0.033,0.942-0.81,1.693-1.765,1.693s-1.732-0.751-1.765-1.69V11.813z M4.633,10.068c0.974,0,1.765,0.786,1.765,1.751S5.607,13.57,4.634,13.57c-0.973,0-1.766-0.785-1.766-1.75C2.868,10.855,3.66,10.068,4.633,10.068z M2.496,17.802c0.168-1.015,0.637-1.966,1.086-2.877c0.028-0.055,0.049-0.104,0.078-0.16c0.153,0.056,0.315,0.098,0.483,0.126c-0.266,1.473,0.49,2.994,1.962,3.745l0.266,0.139l0.286-0.104c1.226-0.431,2.361-1.133,3.363-2.071c0.545-0.505,1.025-1.068,1.435-1.681l0.022-0.035c0.161,0.027,0.323,0.034,0.484,0.034c1.45-0.003,2.668-0.98,3.027-2.305l0.005-0.022h1.176c0.362,1.349,1.583,2.327,3.033,2.327h0.001c0.581,0,1.119-0.16,1.583-0.43c0.182,0.52,0.238,1.063,0.14,1.605h0.001c-0.169,0.92-0.732,1.683-1.505,2.125l-0.015,0.008c-0.764,0.438-1.703,0.577-2.691,0.716c-0.658,0.084-1.22,0.186-1.771,0.314l0.118-0.023c-1.457,0.355-2.857,1.05-4.216,1.717c-1.738,0.854-3.377,1.66-4.897,1.66c-0.007,0-0.015,0-0.023,0c-0.804,0-1.548-0.257-2.153-0.691C2.237,20.863,2.313,18.885,2.496,17.802z"/></svg>